<svg id="svg2" xmlns="http://www.w3.org/2000/svg" viewBox="0 0 1473 669"><defs><style>.cls-1{fill:#fff;}</style></defs><g id="g4121"><path id="path3207" class="cls-1" d="M1114,9.22c-140.39,0-259.7,90.26-303.09,215.9h18.81V350.91q0,21,6.19,31.25T856,392.44q13.72,0,20-9.88t6.38-31.65V225.12h36.78V353.75q0,37.37-16,57.25T856,430.91q-31.15,0-47.19-19.91a62,62,0,0,1-8.4-14.12C831.27,541.74,959.94,650.44,1114,650.44c143.57,0,265.1-94.37,305.94-224.47l-9.16-37.91h-52.59l-9.81,40.75H1311.5l52.41-201.59H1406l28.5,109.59c0-2.31.06-4.64.06-7C1434.59,152.78,1291.06,9.22,1114,9.22Zm-173.06,218h43.72l51.75,115.47V227.22H1070V428.81h-35.28L974.47,290.44V428.81H940.94Zm148.65,0h101.69v39H1126v37.5h60.5v39H1126v86.12h-36.41Zm116.13,0H1266q13.53,0,22.78,3.37a46.44,46.44,0,0,1,16.47,9.91,50.8,50.8,0,0,1,13.06,20.44q4.58,12.45,4.56,29.9a106.51,106.51,0,0,1-3.31,26.54A66.11,66.11,0,0,1,1310,339q-8.48,11.91-19,18t-25.94,6.1h-22.75v65.65h-36.62Zm36.62,37.62v60.41h10.47a59.88,59.88,0,0,0,15.35-1.63,19.59,19.59,0,0,0,10.18-6.5,26.57,26.57,0,0,0,5.07-10.31,58.05,58.05,0,0,0,1.62-14.75,30.76,30.76,0,0,0-3.25-14.62q-3.24-6.22-7.53-8.66a25.23,25.23,0,0,0-11.16-3.53c-3.62-.27-8.43-.41-14.47-.41Zm142.16,14-17.44,72.28h34.88Z"/><g id="g4020"><g id="g3072"><g id="g4303"><path id="path4290" class="cls-1" d="M670.89,435.59a42.81,42.81,0,0,1-5.3,4.81c-11.86-12.26-25.8-25.86-39-25.86-8.21,0-14.13,6.25-21,10.66-9.57,6.13-22.71,9.57-34,5.08-6.06-2.3-11.92-5.68-16.31-11.18,8.86,6.1,22.13,6.93,32.13,2.78,11-4.59,22.31-10.68,34.9-10.68C640.85,411.2,658.5,423.76,670.89,435.59ZM533.63,397c12.29,14,32.35,9.5,48.76,13,2.29.49,4.43,1.25,6.89.87-2-1.24-4.54-1.38-6.8-2.22-12.73-4.8-14.72-18.43-21.69-27.81,8.9,5.91,16.28,14,24.6,21.63,5.8,5.3,13,7.57,20.5,9.09-1.8.66-4.15.5-6.09,1-13.44,3.34-28.35,8.61-42.66,3.88C547.9,413.38,538.29,406.16,533.63,397Zm-19.71-32.39c7.67,17.36,26.94,18.72,39.75,29.38a35.62,35.62,0,0,0,7.53,5.13l.14-.14a55.45,55.45,0,0,1-8.45-9.19c-7.32-10.64-4.89-25.18-10.53-36.46,5.13,6.14,9.94,12.47,12.89,19.5,4.76,11.32,6.37,24.23,17,32.83-11.54-3.81-24.85-3.05-35.24-9.86-10.92-7.15-21-18.44-23.12-31.19Zm-8.22-35.13c1.11,15.3,17.4,23.47,25.17,36.05a33.79,33.79,0,0,0,5.77,7.62c-.37-1.63-1.71-3.07-2.45-4.67a35.11,35.11,0,0,1-3-18.06c.76-7.81,4-15.06,2.76-23.28,6.7,14.45,4.54,32.51,8.41,48.13.85,3.46,3,6.48,4.26,9.76-6.58-5-15.2-9.45-22.42-15.14-7-5.5-13-11.95-16.19-20.35-2.27-6-2.86-13.26-2.31-20.06Zm.46-28.19c.78-3.41,1.39-6.95,2.87-10.08-2.81,14.43,6.79,24.86,10.07,37.34,1.23,4.71,1.66,9.71,3.56,14.1.18.09.33-.09.44-.23-4.74-13.29,2.21-25.57,9-36.05,1.78-2.75,2.63-6,3.46-9.2.74,6-.54,13-1.66,19.19-1.43,8-4.16,15.48-6.33,23.19-1.43,4.82-1,10.25-.32,15.3l-.69-.55c-5-9.3-15-16.56-18-26.71-2.4-8.11-4.06-17.48-2.4-26.3Zm5.31-15.52c0-10.92,4.25-19.83,10.63-28,.19-.09.32-.27.56-.23-7,10.68-.63,24.16-1.54,36.28l-.92,12.43c.14.09.14.47.46.32a34.1,34.1,0,0,0,.78-4.29c1.69-10,10.5-17,18-24.08a15.8,15.8,0,0,0,3.89-5.78A46.37,46.37,0,0,1,539,287.11c-5.75,11.63-16.85,21-18.84,34.25C519.23,308.69,511.47,299.27,511.47,285.78ZM530,248.94c3.53-3.92,7.49-7,12.2-8.17-9.15,6.29-8.65,17.53-11.45,26.93-1,3.44-2.53,6.66-3.33,10.21l.23.19A30.16,30.16,0,0,1,535.16,267c6.44-6.07,16.11-9.75,19.3-18.63-.15,12.34-10.67,21.72-20.27,29A35,35,0,0,0,524,289.57a46,46,0,0,0,.24-9.58c-1-10.78-1.63-22.86,5.76-31.05Zm37.13-20.75c-6.79,6-11.32,13.63-16.53,20.52-4.34,5.73-10.29,9.29-15.41,14.1,2.76-5.74,3.27-12.31,6.78-17.85C548,235.47,557.87,231.79,567.11,228.19Z"/><path id="path4301" class="cls-1" d="M600.71,435.59A42,42,0,0,0,606,440.4c11.87-12.26,25.8-25.86,39-25.86,8.21,0,14.12,6.25,21,10.66,9.58,6.13,22.71,9.57,34,5.08,6.05-2.3,11.92-5.68,16.3-11.18-8.86,6.1-22.12,6.93-32.13,2.78-11.05-4.59-22.3-10.68-34.9-10.68C630.74,411.2,613.09,423.76,600.71,435.59ZM738,397c-12.29,14-32.34,9.5-48.76,13-2.28.49-4.43,1.25-6.88.87,1.95-1.24,4.54-1.38,6.79-2.22,12.74-4.8,14.72-18.43,21.69-27.81-8.9,5.91-16.28,14-24.6,21.63-5.79,5.3-13,7.57-20.5,9.09,1.8.66,4.15.5,6.09,1,13.45,3.34,28.36,8.61,42.67,3.88C723.69,413.38,733.3,406.16,738,397Zm19.71-32.39C750,382,730.74,383.34,717.92,394a35.56,35.56,0,0,1-7.52,5.13l-.14-.14a55.83,55.83,0,0,0,8.44-9.19c7.33-10.64,4.89-25.18,10.54-36.46-5.13,6.14-10,12.47-12.9,19.5-4.75,11.32-6.37,24.23-17,32.83,11.54-3.81,24.85-3.05,35.24-9.86,10.92-7.15,21-18.44,23.12-31.19Zm8.22-35.13c-1.11,15.3-17.4,23.47-25.16,36.05a33.83,33.83,0,0,1-5.78,7.62c.38-1.63,1.72-3.07,2.46-4.67a35.11,35.11,0,0,0,3-18.06c-.75-7.81-4-15.06-2.76-23.28-6.69,14.45-4.54,32.51-8.4,48.13-.86,3.46-3,6.48-4.26,9.76,6.58-5,15.19-9.45,22.41-15.14,7-5.5,13.05-11.95,16.2-20.35,2.27-6,2.86-13.26,2.3-20.06Zm-.46-28.19c-.78-3.41-1.38-6.95-2.87-10.08,2.81,14.43-6.79,24.86-10.06,37.34-1.24,4.71-1.66,9.71-3.56,14.1-.18.09-.34-.09-.45-.23,4.74-13.29-2.2-25.57-9-36.05a30.8,30.8,0,0,1-3.46-9.2c-.73,6,.55,13,1.66,19.19,1.43,8,4.17,15.48,6.34,23.19,1.43,4.82,1.05,10.25.32,15.3l.68-.55c5-9.3,15-16.56,18-26.71,2.4-8.11,4.05-17.48,2.39-26.3Zm-5.31-15.52c0-10.92-4.25-19.83-10.63-28-.18-.09-.31-.27-.55-.23,7,10.68.63,24.16,1.53,36.28l.93,12.43c-.14.09-.14.47-.47.32a36,36,0,0,1-.78-4.29c-1.69-10-10.49-17-18-24.08a15.92,15.92,0,0,1-3.89-5.78,46.13,46.13,0,0,0,4.26,14.65c5.74,11.63,16.84,21,18.84,34.25C752.36,308.69,760.12,299.27,760.12,285.78Zm-18.51-36.84c-3.53-3.92-7.48-7-12.2-8.17,9.15,6.29,8.66,17.53,11.46,26.93,1,3.44,2.53,6.66,3.33,10.21l-.24.19A30.16,30.16,0,0,0,736.43,267c-6.44-6.07-16.11-9.75-19.29-18.63.14,12.34,10.66,21.72,20.27,29a35,35,0,0,1,10.2,12.21,45.28,45.28,0,0,1-.23-9.58c1-10.78,1.62-22.86-5.77-31.05Zm-37.13-20.75c6.79,6,11.32,13.63,16.54,20.52,4.33,5.73,10.29,9.29,15.41,14.1-2.77-5.74-3.28-12.31-6.79-17.85C723.64,235.47,713.72,231.79,704.48,228.19Z"/></g><path id="path51" class="cls-1" d="M718.73,351.55l-2-1.1A90.07,90.07,0,0,1,700.1,374.1l-11.71-11.71a73.37,73.37,0,0,0,13.78-19.89l-2-1.09a71.39,71.39,0,0,1-13.37,19.38l-10.62-10.61a55.91,55.91,0,0,0,10.78-16l-2-1.08a53.77,53.77,0,0,1-10.39,15.47l-11.72-11.72a37.09,37.09,0,0,0,7.49-11.74l-2-1.08a35.3,35.3,0,0,1-7.09,11.24l-10.65-10.65a19.76,19.76,0,0,0,5-12.16h15.07a34.78,34.78,0,0,1-2.37,11.57l2,1.08A37,37,0,0,0,673,312.48h16.61a53.53,53.53,0,0,1-4.6,20.64l2,1.08a55.92,55.92,0,0,0,4.84-21.73h15a70.65,70.65,0,0,1-6.67,28.94l2,1.09a73,73,0,0,0,6.9-30h16.61a89.4,89.4,0,0,1-8.95,38l2,1.1a92.49,92.49,0,0,0,2.5-74.73l-2.06.88a89.48,89.48,0,0,1,6.5,32.55H709.06a73,73,0,0,0-5.16-26l-2,.87a71,71,0,0,1,5,25.11h-15A56,56,0,0,0,688,291.09l-2,.87a53.71,53.71,0,0,1,3.59,18.29H673a37.34,37.34,0,0,0-2.25-11.73l-2,.88a35.09,35.09,0,0,1,2.07,10.85H655.68a19.7,19.7,0,0,0-5-12.16l10.66-10.66a34.85,34.85,0,0,1,7.38,12l2-.87a37.15,37.15,0,0,0-7.85-12.67l11.74-11.74A53.51,53.51,0,0,1,686,292l2-.87a55.72,55.72,0,0,0-11.85-18.54l10.64-10.64a70.76,70.76,0,0,1,15,23.23l2-.87a73.07,73.07,0,0,0-15.51-23.93l11.74-11.74a89.47,89.47,0,0,1,19,29.1l2.06-.88a92.46,92.46,0,0,0-51-50.94L669.4,228A89.7,89.7,0,0,1,698.56,247l-11.74,11.74a73.22,73.22,0,0,0-23.49-15.32l-.81,2.06a70.86,70.86,0,0,1,22.73,14.85L674.61,271A55.69,55.69,0,0,0,657,259.52l-.81,2.06a53.68,53.68,0,0,1,16.83,11L661.3,284.31a37.06,37.06,0,0,0-11.16-7.26l-.82,2.07a34.6,34.6,0,0,1,10.41,6.76l-10.65,10.66a19.67,19.67,0,0,0-12.17-5V276.43a34.55,34.55,0,0,1,12.41,2.69l.82-2.07a37.06,37.06,0,0,0-13.23-2.84V257.6a53.62,53.62,0,0,1,19.3,4l.81-2.06a55.61,55.61,0,0,0-20.11-4.14v-15a71,71,0,0,1,25.61,5.18l.81-2.07a73.24,73.24,0,0,0-26.42-5.33V221.5A90,90,0,0,1,669.4,228l.82-2.08A92.15,92.15,0,0,0,594.58,229l1,1.94a89.26,89.26,0,0,1,39.09-9.46v16.61a72.81,72.81,0,0,0-31.37,7.61l1,1.93a70.68,70.68,0,0,1,30.36-7.32v15A55.68,55.68,0,0,0,611.32,261l1,1.94a53.57,53.57,0,0,1,22.36-5.36V274.2a37,37,0,0,0-14.64,3.49l1,1.95a34.76,34.76,0,0,1,13.62-3.22v15.07a19.72,19.72,0,0,0-6.62,1.53l1,2a17.72,17.72,0,1,1-5.82,3.87,17.68,17.68,0,0,1,5.82-3.87l-1-2a20,20,0,0,0-5.54,3.51l-10.66-10.66a34.94,34.94,0,0,1,9.19-6.23l-1-1.95a37.16,37.16,0,0,0-9.73,6.63l-11.76-11.76A53.66,53.66,0,0,1,612.33,263l-1-1.94A56.18,56.18,0,0,0,597,271l-10.65-10.66a70.89,70.89,0,0,1,18-12.7l-1-1.93a73.68,73.68,0,0,0-18.52,13.09L573,247A90,90,0,0,1,595.59,231l-1-1.94a92.8,92.8,0,0,0-41.43,41.71l1.93,1a90,90,0,0,1,16.38-23.16l11.77,11.77a73.44,73.44,0,0,0-13.49,19.31l1.92,1a71.32,71.32,0,0,1,13.11-18.81l10.66,10.66A55.84,55.84,0,0,0,585,287.91l1.92,1A54,54,0,0,1,597,274.13l11.76,11.76a36.93,36.93,0,0,0-7.19,11l1.94,1.05a35.22,35.22,0,0,1,6.8-10.49L621,298.1a19.83,19.83,0,0,0-5.05,12.16H600.84a34.82,34.82,0,0,1,2.65-12.33l-1.94-1.05a36.87,36.87,0,0,0-2.93,13.38H582A53.7,53.7,0,0,1,586.87,289l-1.92-1a55.78,55.78,0,0,0-5.16,22.35h-15a70.72,70.72,0,0,1,6.91-29.53l-1.92-1a72.89,72.89,0,0,0-7.21,30.57H545.92a89.37,89.37,0,0,1,9.16-38.49l-1.93-1a91.51,91.51,0,0,0-9.48,40.64,92.63,92.63,0,0,0,3.71,26l2.18-.55a90,90,0,0,1-3.64-24.31h16.61a73.64,73.64,0,0,0,3.14,20.25l2.16-.54a70.89,70.89,0,0,1-3.08-19.71h15a56.24,56.24,0,0,0,2.66,16l2.16-.55a53.82,53.82,0,0,1-2.6-15.48h16.61a37.33,37.33,0,0,0,2.14,11.41l2.16-.54a35.17,35.17,0,0,1-2.08-10.87h15.07a19.77,19.77,0,0,0,5,12.17l-10.66,10.66a34.94,34.94,0,0,1-7.37-12l-2.16.54a36.82,36.82,0,0,0,8,13L597,348.62A53.68,53.68,0,0,1,584.61,328l-2.16.54a55.61,55.61,0,0,0,13,21.68l-10.64,10.64a70.63,70.63,0,0,1-16.95-28.64l-2.15.55a72.83,72.83,0,0,0,17.53,29.66l-11.75,11.75a89.41,89.41,0,0,1-21.9-37.36l-2.17.55a92.52,92.52,0,0,0,48.68,57.2l1.11-2A89.59,89.59,0,0,1,573,375.71L584.78,364a73,73,0,0,0,20.59,14.09l1.1-1.94a71,71,0,0,1-20.12-13.72L597,351.76A55.62,55.62,0,0,0,613.89,363L615,361a53.56,53.56,0,0,1-16.43-10.81l11.74-11.74a36.92,36.92,0,0,0,12.94,7.94l1.11-2a34.91,34.91,0,0,1-12.48-7.55l10.66-10.66a19.71,19.71,0,0,0,12.17,5v15.07a34.84,34.84,0,0,1-10.35-1.9l-1.11,2a37.35,37.35,0,0,0,11.46,2.15v16.61A53.64,53.64,0,0,1,615,361L613.9,363a55.68,55.68,0,0,0,20.8,4.43v15a70.74,70.74,0,0,1-28.23-6.3l-1.1,1.94a73,73,0,0,0,29.33,6.58v16.61a89.55,89.55,0,0,1-37.52-8.67l-1.1,2a92.43,92.43,0,0,0,81.24-.9l-1.05-2a89.19,89.19,0,0,1-39.35,9.65V384.65a72.71,72.71,0,0,0,31.75-7.76l-1-2a70.52,70.52,0,0,1-30.72,7.55v-15a55.6,55.6,0,0,0,23.84-5.84l-1-2a53.48,53.48,0,0,1-22.81,5.62V348.56a37.19,37.19,0,0,0,15.21-3.74l-1-2a34.81,34.81,0,0,1-14.18,3.51V331.27a19.7,19.7,0,0,0,12.16-5l10.65,10.65a35.3,35.3,0,0,1-8.63,5.95l1,2a37.45,37.45,0,0,0,9.18-6.36L673,350.18a53.54,53.54,0,0,1-13.3,9.37l1,2a55.93,55.93,0,0,0,13.86-9.78l10.62,10.61a71,71,0,0,1-17.6,12.5l1,2A73.08,73.08,0,0,0,686.83,364l11.71,11.71a90.09,90.09,0,0,1-22.27,15.92l1.05,2a92.57,92.57,0,0,0,41.42-42.08Z"/><polygon id="polygon59" class="cls-1" points="641.07 290.04 640.51 290.07 640.54 290.73 641.1 290.71 641.07 290.04"/><rect id="rect61" class="cls-1" x="639.7" y="289.16" width="0.74" height="0.57"/><polygon id="polygon63" class="cls-1" points="638.36 288.96 639.01 289.06 639.09 288.5 638.44 288.4 638.36 288.96"/><polygon id="rect65" class="cls-1" points="637.81 288.77 637.16 288.68 637.24 288.12 637.89 288.21 637.81 288.77"/><rect id="rect67" class="cls-1" x="632.45" y="288.02" width="0.74" height="0.57"/><polygon id="polygon69" class="cls-1" points="630.84 289.15 631.48 289.24 631.56 288.68 630.91 288.59 630.84 289.15"/><polygon id="rect71" class="cls-1" points="630.9 290 630.16 289.82 630.29 289.27 631.04 289.46 630.9 290"/><polygon id="rect73" class="cls-1" points="629.57 290.7 629.48 290.14 630.03 290.04 630.12 290.61 629.57 290.7"/><polygon id="polygon75" class="cls-1" points="556.35 348.1 556.35 347.62 555.88 347.62 555.88 348.57 556.63 348.57 556.63 349.79 557.19 349.79 557.09 348.38 556.35 348.1"/><polygon id="polygon77" class="cls-1" points="563.69 355.83 563.32 356.49 562.3 355.55 561.55 354.51 561.18 353.66 560.53 351.96 561.92 352.62 562.39 353.94 563.04 354.42 563.69 355.83"/><polygon id="polygon79" class="cls-1" points="582.55 381.76 582.46 380.92 581.72 379.78 582.83 379.97 584.04 381.01 584.51 382.24 583.85 382.61 583.48 382.05 582.55 381.76"/><path id="path81" class="cls-1" d="M632.92,296.13h-1l-.19-2.07.56-.38v-1H629l-.1-1,.47-.29-.75-.28-.55.75-.19.85-.93.19v.47h-.65v1.23l-2.6,2.17-5.2-.19c-.38.85-1.31-.09-1.31-.09-.18-.57-1.48,0-1.48,0,0,1-1.77-.48-1.77-.48l-3.25-2.35c-1.86-1.7-4.65.47-4.74.94.09,1.32-2.14.28-2.14.28s-1.85-.56-2.13.19-1.49.57-1.49.57L600,296l-.93.18-.18.57-1.12.19,2.79-.1c.74-.09-.28,1.61-.74,1.51l-1.3.1-.47.47h-1.21l-.55.75-1.77-.09s-1,.85-.93,1.13-.18,1.13-.46,1.13-.84.85-.65,1.13-.56,1.23-.56,1.23l-.19.94-.55.19v2.55l-1.12.75v1.13l-1.67,1.8.18,1.5-1.39,1.51.19,1.51-.84.29-.18.66-.38,2,.93.09c.47-.19.37,1.23,0,1.41s-1.39.57-.83,1-1.49.28-1.49-.29-1.12-1-1.39-.84-.75-.85-.75-.85c-1-1-4.18.09-4.18.09l-.47,1.51c-1,.19-1.67,1.89-1.67,1.89-.83.28-1.48,1.32-1.2,1.6s-.47.38-.47.38V327l-.46.66.09,2.27c.56,0,.46,1,.46,1-.93.1-.74,1.32-.74,1.32l-2,.66-.37.57-2.42-.1-.65.67-.65-.67h-4.65l-.18-.47-.93-.19-.1-1-1.39.09-.28.57-1.48.09c.09.94-1.49,2.36-1.68,2s-1.21-1.41-.74-1.6a11.23,11.23,0,0,1,1.67-.38v-.66l-3.44-.09-.37.56-1.39.1v1.51l-.65.19c-.47.28.09,1.32.09,1.32.65.65-.09,1.69-.09,1.69-.56.57.46,1.61.46,1.61.75.18-.46.75-.46.75a1.72,1.72,0,0,0,.74,1.23,1,1,0,0,0,.37,1.41l.1,1.6.65.38v1l.37.66h1.48l-.09-2.36c-1.3-1.51,1.12-1.89,1.21-1.32s1.12.85,1.12.85c.18,1.41,1.76,2.26,2.23.85s.83-.57,1.11.09a13,13,0,0,0,2,2.27h1.4l.19,1.32c1.57-.1,2,.09,2.69,2.26a4.07,4.07,0,0,0,2.41,2.73l1.31-.09c0-1.13,1.3.19,1.3.76s2.51,2.73,2.51,2.73l2.5.56,2.33,1.89,1.76-.19h.75c.46-1.6,2.69.1,2.88.66s1.67,1.51,1.86,1,1.2-.19,1.39,1.23.84,1.13.84,1.13l5.29-.1,1.86-1.6,4.74-.09c2.42-.1.93-3.4.47-3.4-.84-.66.27-3.39.27-3.39l-6.78-6.32c-1.58,0-.19-2.27-.19-2.27,1.21-.75-.27-2-.27-2a4.28,4.28,0,0,0-.65-2.45,3.32,3.32,0,0,1-1.21-3.3v-1.51c-1.4-1.32.56-1.51.56-1.51a1.58,1.58,0,0,0-.47-2l-.09-1.22-1.49-.19-.18-4.44-3.35-4.81c-.65-.19-.19-1.32-.19-1.32.84-.47-.18-1.6-.18-1.6l-.1-2.07,2-.19.47-.76H591l-.09-2.45a1,1,0,0,1,1.58-.57l1.3.1.74-1.42.19-1.13-1-.09c-1.11-.66-.55-3.11-.55-3.11,1.76-2.64,3.81-1.14,3.81-1.14l1.3-.09c2,1.32.18,3.77.18,3.77a5.6,5.6,0,0,0-.18,2.36l.46,3-1.21,1c-1,.56-1,1.88.1,2.16.74.1.46,1.89-.65.66-1.68,0,.93,1.51.18,1.13,1.68.85,1.3-.75,1.3-.75l2.23-1.79c.84-.66,2.33,1.41,2.33,1.7s3.71.09,3.71.09a4.29,4.29,0,0,1,1.4,2.36c1-1.32,3.16-.1,1.58.66,1.48.94,1.48,1.79,1.48,1.79,1.21-.38,1.21.57,1.21.85a9.79,9.79,0,0,0,.37-1.41c-1.39-1,1.86-1.42.93.47l-.55.85.93.75.09,2.17c2-.19,1.48-2.74,1.48-2.74l.93-.18c0-.85.65-.38.65-.38-.65-3.21,1.49-3.77,1.49-3.77,1.21-.29,1.3-2.83,1.3-2.83-.83-.38-.37-1.7.56-.57s-.56-2.26-.56-2.26l-.74-.66-1-.1-.1-1h-1.67l-.28,1.32-.65.19-.18-.38-.28,1h-1.67l-.1-1.13,1-.28.38-.57.27-1.5h1.21l1.58-.48c.09-1.6.93-1.22.93-1.22l.56.47.84.66.09.56-.56.29-.09.75.28,1h.74a1.56,1.56,0,0,1,2.79-.57l.56-1.32c-1.3-.66,0-1.69.34-1.22s1.24-1.23,1.24-1.23.65.85,0-.28a1.17,1.17,0,0,1,.46-1.7c-.19-1.13,1.21-.94,1.21-.94l.09-1.51L626,305c-.28,1.33-1.39.19-.84-.09a5.12,5.12,0,0,0,1.12-.85v-.94l.56-.19.09-.94h1.39l1.21-.57.28-.47,1.3-.09,1.86-1.7-.19-.76c-1.11,0,0-.85,0-.85l.19-1.41Z"/><path id="path83" class="cls-1" d="M595.47,314.8l-1.67-.18.09.66h.47c.74,1.32.09,4.52.09,4.52s-1.12.1-1.3-.47-.65,1.23-.28,1.51,1.67,0,1.76,1,.84-.66.84-.66V314.8Z"/><polygon id="polygon85" class="cls-1" points="596.03 324.52 595.38 324.24 595.47 322.82 596.03 322.73 596.12 322.06 594.72 323.01 593.79 322.44 593.79 324.71 595.28 326.69 595.84 325.37 596.03 324.52"/><polygon id="polygon87" class="cls-1" points="596.21 328.76 596.21 327.82 595.56 327.91 595.47 328.67 596.21 328.76"/><polygon id="polygon89" class="cls-1" points="595.38 333.29 595.38 332.63 594.59 332.72 594.59 333.38 595.38 333.29"/><path id="path91" class="cls-1" d="M596.47,330.39a.4.4,0,1,0-.39-.4A.39.39,0,0,0,596.47,330.39Z"/><ellipse id="circle93" class="cls-1" cx="597.12" cy="331.97" rx="0.39" ry="0.4"/><ellipse id="circle95" class="cls-1" cx="597.14" cy="321.2" rx="0.39" ry="0.4"/><polygon id="polygon97" class="cls-1" points="627.07 309.81 626.32 310 624.65 311.6 624.56 312.35 624.09 313.01 623.53 314.43 621.58 314.52 621.21 316.22 621.49 317.63 623.16 318.29 623.35 317.35 623.9 317.07 624 316.13 624.37 315.46 624.93 314.81 625.11 314.05 626.04 313.49 627.16 313.29 627.62 312.73 627.81 311.6 627.88 310.75 628.27 310.18 629.39 309.71 629.39 307.92 628.83 307.92 628.74 307.26 627.71 307.17 627.53 307.64 627.07 307.64 626.97 308.39 627.53 308.39 627.62 308.96 627.25 309.33 627.07 309.81"/><path id="path99" class="cls-1" d="M631.34,313.67v-1.32l-.19-1.22-1.39-.66-1,.94-.19,1.32v.85l-.93.19-.19,2.55-.74.28.09.94-1,.28-1,.29-.19,1.22-.74.47-.37,1.14-.47,2.73s.84,1.6,1.3.85a1.85,1.85,0,0,1,1.21-.85l.28-.66,2.51.1c.19-1,1.39-.66,1.39-.19s.93.09.93.09l.65-1h1l.1-1.13.46-.28v-1.7a1.76,1.76,0,0,0,1.3-1.88l.38-.48-.19-.65c-.74-.29-.37-1,.09-.76s-.65-.85-.65-.85c-.56.47-1-.57-1-.57Z"/><path id="path101" class="cls-1" d="M632.82,325.08c-.09,1.14-1.48,1.51-1.48,1.51l-1-.28-.55-.47-.1-1.32.84-.1.19.57,2.13.09Z"/><path id="path103" class="cls-1" d="M637.84,319.05c.2.82.19-1.32.56-1.22s.09-1.32.09-1.32l-1.67,1.22c.84.1.93.95,1,1.32Z"/><path id="path105" class="cls-1" d="M642.77,314.14c.37.85.28,2.08,1.67,3,.47.32-.28.95-.75.66a14.15,14.15,0,0,1-1.76-2.36v-1.22c.28-.76.68-.46.84-.1Z"/><polygon id="polygon107" class="cls-1" points="643.42 342.34 642.77 342.81 643.05 343.1 643.32 343.57 643.97 342.53 643.42 342.34"/><polygon id="polygon111" class="cls-1" points="653.88 339.94 654.63 339.47 654.33 338.99 653.59 339.46 653.88 339.94"/><path id="path113" class="cls-1" d="M680.77,359.6l.84.38.09,1.6c1.12,1.13,4.74.19,4.74-.09s-.18-3.49-.18-3.49l-.47-.47-.09-2.36c.37-1.23-1.77-3-2-2.64s-1.4.09-1.4.47-.74,2.26-.37,2.92-.28.66-.37,1.32-1,1.8-.84,2.36Z"/><path id="path115" class="cls-1" d="M678.73,355.83c-.18.71-.84,1.13-1.21.85s.46.47.65.85a.53.53,0,0,0,.93,0c.18-.38.09-1.23.28-1.61s-.56-.47-.65-.09Z"/><rect id="rect117" class="cls-1" x="674.41" y="338.53" width="0.65" height="1.79"/><path id="path119" class="cls-1" d="M684,320.37c-.41-.55,1.86-1.51,2.23-.38s0,.95-.37.85-1.3.29-1.86-.47Z"/><polygon id="polygon123" class="cls-1" points="686.02 307.74 685.93 308.29 686.95 308.48 687.05 307.93 686.02 307.74"/><polygon id="polygon125" class="cls-1" points="683.7 308.56 683.42 308.71 682.73 309.1 682.13 308.72 681.83 309.2 682.58 309.67 682.72 309.76 682.86 309.68 683.42 309.36 683.49 309.53 684.01 309.32 683.82 308.85 683.7 308.56"/><path id="path127" class="cls-1" d="M686.91,286.42h-1.4s.47.19-.83-1a1.28,1.28,0,0,0-2.14.28l-1.49.19v1.51l-.74.28.09.95,1-.1s0,1.13.28.66,2.61.1,2.42,1.23c-.08.46,2.32,1.7,2,3.2a1.13,1.13,0,0,1,.93,1.42l1.58.19.47-.94.46.09v-.57l-1-.28-.19-3-.65-.47.19-.75-.74-.29.37-1.22-.65-1.32Z"/><path id="path129" class="cls-1" d="M691,296l-.74-.09-1.68.28-.92,1.79a2.69,2.69,0,0,1,.83.94c.37.66.56,4.53-.55,5.19s.09.28.09.28l-.19,2.08c.28.94.74.47,1,0s.56-.57.93-1a5,5,0,0,0,1-2c.09-.66.55-1.7.27-2s.28-1.6.28-1.6a1.82,1.82,0,0,0,0-1.51,2,2,0,0,1,.38-2L691,296Z"/><polygon id="rect133" class="cls-1" points="692.12 299.89 692.21 299.13 692.76 299.2 692.67 299.96 692.12 299.89"/><polygon id="rect135" class="cls-1" points="692.08 302.49 691.59 302.24 691.86 301.67 692.36 301.93 692.08 302.49"/><path id="path137" class="cls-1" d="M691.27,295l-.37-.85a3.47,3.47,0,0,1,.18-1.13c.19-.37-.37-.75-.64-.85s-.19-.84-.28-1.22-.75-.66-.75-.66-.18-1.42-.18-1.7-.84-.66-.56-.94a8.2,8.2,0,0,1,.74-.85c.28-.19-.28-1.51.19-1.23s.46.76.65,1.13-.09,1.7.37,2-.09,1.22.65,1.22.28,1.79.28,1.79-.19,1.32.28,1.42.18,2.36.18,2.36l-.74-.48Z"/><path id="path139" class="cls-1" d="M685.23,279.72c.28.38.84.66.84,1s-.19.66.37.75.93-.09,1.12.38a3.28,3.28,0,0,1,.09,1.6c-.09.38.09.95.56.95s.56.09.56.37.55-1,.55-1a4,4,0,0,1-.83-1.23A14.67,14.67,0,0,1,688,281c0-.19-.65-.38-.93-.47s-.74-.94-.74-.94l-1.12.09Z"/><path id="path141" class="cls-1" d="M686.16,278.88a2.67,2.67,0,0,0-.93-.85,2.25,2.25,0,0,0-1-.38.61.61,0,0,1-.56-.85c.19-.47-.28-.66-.28-1s.28-.37.75-.09.37.38.74.85.56.94.93.85.65.85,1,.56.28.66.28.66l-.93.29Z"/><path id="path143" class="cls-1" d="M675.29,289.53c.51.52-2.79.38-2.79,0s.28-1.69,1.12-1.41.93-1.7.93-1.7-.75.09-.1-.28,0-.95-.28-1.23a5,5,0,0,1-.55-.75h1.3c.56-.38.74-2.17.74-2.17a1.46,1.46,0,0,0,1.67-.38,3.91,3.91,0,0,0,.56,1c.37.47-.93.66-.46.94a1.29,1.29,0,0,1,.46,1.41c-.18.29-1.21.1-1.21-.28s-.37.47,0,.94-.46,1.14-.65,1.14-1.39.19-.37.75a3.18,3.18,0,0,0,2.14.28s.84-.09,1.11.38-.09.57-.55.57-2.7-.19-2.7-.19-.65.66-.37.94Z"/><path id="path145" class="cls-1" d="M669.34,290.38c.47-.09,1.58-.19,1.77.1s-.65.65-.65.65l-1.12.19c-.37-.47-.46-.84,0-.94Z"/><path id="path147" class="cls-1" d="M681.33,282.46c.75-.38,2.32-.38,2.23-.94s.93-.76.93-.76l.28,1.13.84.57.09,1s.28-.19-.74.09-.37.76-.37.76l-2.24.09-.27-.94-.75-1Z"/><path id="path149" class="cls-1" d="M677.7,277.37c.57,0-.18,2.17,1.31,2s.09.66,1.2.75.84-.85,1.21-1.51.19-1-.46-1.22-.65-.19-.84-.95a1.35,1.35,0,0,0-.93-.94l-.28-1.13-1.21.75-1.2,1.61c0,1.22.65.66,1.2.66Z"/><polygon id="rect153" class="cls-1" points="680.16 285.34 680.44 284.77 680.94 285.02 680.66 285.59 680.16 285.34"/><rect id="rect155" class="cls-1" x="679.19" y="284.44" width="0.56" height="0.66"/><polygon id="rect157" class="cls-1" points="679.66 271.87 679.75 272.72 679.2 272.79 679.11 271.94 679.66 271.87"/><rect id="rect159" class="cls-1" x="678.08" y="280.67" width="0.56" height="0.47"/><polygon id="rect161" class="cls-1" points="676.62 280.66 676.56 280.09 677.49 280 677.54 280.56 676.62 280.66"/><polygon id="rect163" class="cls-1" points="668.95 289.73 668.44 289.5 668.72 288.84 669.23 289.07 668.95 289.73"/><polygon id="rect165" class="cls-1" points="666.03 288.01 665.98 287.45 666.91 287.35 666.96 287.92 666.03 288.01"/><polygon id="polygon169" class="cls-1" points="649.91 287.83 647.87 287.93 647.89 288.49 649.93 288.4 649.91 287.83"/><polygon id="rect171" class="cls-1" points="646.5 288.65 646.31 287.81 646.86 287.68 647.04 288.53 646.5 288.65"/><polygon id="rect173" class="cls-1" points="646.11 289.24 645.93 288.7 646.21 288.61 646.39 289.14 646.11 289.24"/><path id="path175" class="cls-1" d="M650.76,287.65l-.1.66,1,.09s.47.38.47.66.65.57,1,.57a4.64,4.64,0,0,0,1.39-.76s.47-1.32.1-1.22-1.12.66-1.21.09-1.21-.28-1.21-.28l-1.48.19Z"/><path id="path177" class="cls-1" d="M655.4,286.61c0,.28-.18.66.37.75s1.58-.37,1.68.19.09.95.83,1.23a4.63,4.63,0,0,0,1.77.38,16.76,16.76,0,0,0,1.76-.19,4.83,4.83,0,0,1,1.58.47c1,1,1.68,1.32,2,.85s-.09-1.51-.18-1.89-1.4-2.17-1.86-1.79-.56,0-1.39.28-2.61.1-2.7-.28-1.39-.57-1.39-.94-.93-.85-.84-.29-.65.85-.84.66-.74.57-.74.57Z"/><path id="path179" class="cls-1" d="M676.78,274.53l.65-2.07c-.93-.19-.75-1.23-.75-1.23-.09-.84-1.39-1.79-1.85-1.5s-.28-2-.28-2,.83-.56,1.21-.28-3.16-4.71-3.91-4.24-2.41-.47-2.32-1.32-3.34-3.68-3.34-3.68-1.12-.75-1.31-.19-.55.94,0,1.23.47-.47,1.12.19,1.86,1.5,1.39,2.07a2.49,2.49,0,0,1-1,.76l.65.75h1l.19,1.6s1.11.57,1.39,1.23.28,1,0,1.41a2.62,2.62,0,0,0-.74,1.7,1.35,1.35,0,0,0,.84.94l.74.1.56.28v1.23c.74-.19,2,.85,1.86,1.51s.18.28,1.11.94.65.75,1.3,1.23,1.21.18,1.49-.67Z"/><path id="path181" class="cls-1" d="M661.44,261.71c-.09-.38-.28-1.7.28-1.6s.19,0,.84.28.74-.47.74-.47h1l1.31,1-.19.85-.93.1c-.46-.76-1.39-.47-1.21.19a2.21,2.21,0,0,1-.83,2c-.37.09-1.58.09-1.49-.47s.46-1.89.46-1.89Z"/><path id="path183" class="cls-1" d="M660.7,259.16v-.75s-.09-.76-.56-.76-1.3-.56-1.11-.94-1.58-.75-1.58-.75-1.58-1.51-1-1.32.28-.67.28-.67a5.88,5.88,0,0,1-1.4.1c-.28-.1-.19-.94-.19-.94s-1.11-.29-1.11,0,.37.28.56.84.09,1.51.93,1.7,1,.38,1.11.76,1.12.47,1.12.47l.74.38,2.23,1.88Z"/><polygon id="polygon185" class="cls-1" points="650.67 249.54 650.39 248.79 649.64 248.6 649.64 249.45 650.67 249.54"/><path id="path187" class="cls-1" d="M650.39,245.58c-1-.73,1.3.57,1.3.57a1.18,1.18,0,0,1,1.2.85c0,.28,1,.19,1,.19l.09-.66-.74-.95-.65-.47s-1-.09-1-.37-.83,1.13-1.2.84Z"/><path id="path189" class="cls-1" d="M667.48,246.15c-.27.82-.37,2-.84,2s-.27,1.23-.27,1.23a11.76,11.76,0,0,1,1.58.09c.37.09.37,1,.37,1,1.39-.1,1.95,1.79,1.76,2.26s.56.47.56.47a7.8,7.8,0,0,1-.19,1.89c-.18.37,1.21.66,1.58,1.22a3.15,3.15,0,0,1-.46,2.55c-.28.09.74.38.65.85s.28,0,.37.75l.28,2.36,1.3.1c.19-1.23,2.58-1.28,3-1.14a5.63,5.63,0,0,1,2.79,3.59c0,.56-1,.66-1,.66l.19,2.73c1.58.47,2.88,2.74,2.69,3.11s1.12.29,1.12.29c.18-1.7,1.76-1.13,1.85-.57s.38,1.79.38,1.79l.46.85.65.66,1-.09.28.56,1.21.19a10.65,10.65,0,0,1,1.12,1.42c.09.28,1.48.19,1.85.28a1.37,1.37,0,0,1,1,.85,4.36,4.36,0,0,0,.65,1.23s1.11.28,1.21.66a8.17,8.17,0,0,0,.55,1.22l.93.76.09.84,1,.1.27,1.13,1.68-.09.93-.66a4.81,4.81,0,0,0,2.13-1.89c.1-.38.28-1.79,1.21-1.51s.28-2.07.28-2.07-1.3-.95-1.21-1.42-1.3-1.41-1.2-1.79-1.21-1.13-1.12-1.51-.65-1.41-.65-1.41l-1.4-1.32-.18-.85-1.12-.1-2.23-2.73.1-.76-.65-.09v-1l-.65-.38-1-.09-2-2.26-.19-1h-1l.19-2a3.52,3.52,0,0,0,.28-2.45s-1.31.66-2,.37.27-.94.27-.94v-.75l-.55-.57s-1.58.19-1.68-.09-.37-1.51-.37-1.51l-.09-1.61-.65-.28-.09-.56-1,.09v-1.13l-.55-.19-.56-.28-.09-1.14-2-.09-.65-.94-.74-1.13-2.32-.19-.56-.57-.93-.19-.65-.28-.28.47-1.77.1-.09.56c-.93.47-4.64.1-4.74.38Z"/><path id="path191" class="cls-1" d="M677.24,243.7c-.15-.74,1.86-1.42,2.32-.85s1.77.66,2,3.49c.06,1-1.68-1-1.68-1l-1.39-.47a1.51,1.51,0,0,1-1.21-1.13Z"/><polygon id="rect193" class="cls-1" points="649.99 244.85 649.48 244.62 649.85 243.77 650.36 244 649.99 244.85"/><path id="path195" class="cls-1" d="M645.18,235.59,644,234.36v-1l-.37-.37-.37-1.32-1.21-.38-1.21.47-1.3.85-1.39.19-.75.85,3,.28.56.94L643,235l1.4,1.42c1.21.37,1.49-.19.74-.85Z"/><path id="path197" class="cls-1" d="M645,231c-.21-.83-1.4,1-.19,1.41a4.51,4.51,0,0,0,2.42,0l.28-.57,4.64.1a2.67,2.67,0,0,0,.56-.94,3.37,3.37,0,0,1,1.58-.19c.46.19.09-1.32-.37-1.14a4,4,0,0,1-1.4.1h-1.67c-.09-.66-1.58-.38-1.67,0s-.65.47-.65.47l-2.14.19c-.18.57-1.3.94-1.39.57Z"/><path id="path199" class="cls-1" d="M635.8,246.88c1.43.45,2,.12,2-.26s.19-.47.74-.56-.09-1.23-.65-1.14a1,1,0,0,1-1.2-.66c-.1-.47-1-1.69-1.12-.75s-.65.94-.56,1.6.38,1.65.75,1.77Z"/><path id="path201" class="cls-1" d="M625.11,247.94c-.06-.33,1.86-.37,2.14-.09s.09.75.93.75.47.57.37.85-1,.19-1.11-.09S626,249,626,249s-.74-.57-.84-1Z"/><polygon id="polygon205" class="cls-1" points="656.72 227.73 655.98 228.32 655.51 227.84 655.12 228.24 655.76 228.9 655.94 229.08 656.14 228.92 657.07 228.17 656.72 227.73"/><polygon id="polygon207" class="cls-1" points="651.59 226.01 651 225.63 650.71 226.11 651.45 226.58 651.59 226.68 651.74 226.58 652.77 225.92 652.47 225.45 651.59 226.01"/><polygon id="polygon209" class="cls-1" points="648.6 245.41 648.46 245.4 647.53 245.3 647.48 245.86 648.27 245.94 648.85 246.86 649.32 246.56 648.67 245.53 648.6 245.41"/><path id="path211" class="cls-1" d="M617.86,271.71l.1,1h1.39c.56,0-.46-.66-.46-.66s-1.12.1-1-.37Z"/><polygon id="rect213" class="cls-1" points="619.64 271.74 619.99 271.3 620.55 271.77 620.19 272.21 619.64 271.74"/><polygon id="rect215" class="cls-1" points="602.71 254.09 603.1 253.69 603.66 254.26 603.26 254.66 602.71 254.09"/><polygon id="polygon219" class="cls-1" points="629.7 375.48 628.77 375 628.52 375.51 629.1 375.8 628.91 376 629.31 376.4 629.77 375.93 630.04 375.65 629.7 375.48"/><polygon id="polygon221" class="cls-1" points="622.5 368.68 622.15 368.25 621.59 368.72 621.31 368.95 621.6 369.17 622.26 369.64 622.58 369.18 622.22 368.92 622.5 368.68"/><path id="path223" class="cls-1" d="M691.6,350.79a1.14,1.14,0,0,0-.72-.7l-.18.54h0l.17.09.12.49-.13.16.41.39a1.05,1.05,0,0,0,.33-1Z"/><polygon id="polygon225" class="cls-1" points="692.46 349.01 691.55 348.94 691.62 348.1 692.53 348.24 692.46 349.01"/><path id="path227" class="cls-1" d="M714,341.66c.39-.25.9-.71.83.35s-.49.71-.83,1.06S713.44,342,714,341.66Z"/><path id="path231" class="cls-1" d="M718.72,337.66s0-.09,0-.14a1.41,1.41,0,0,0-.15-.59l-.49.26a1,1,0,0,1,.08.38.63.63,0,0,0,.19.48.48.48,0,0,0,.38.07l-.11-.55a.17.17,0,0,1,.11.09Z"/><path id="path233" class="cls-1" d="M717.48,338.12a11.13,11.13,0,0,0,.36,1.16l.52-.2s-.2-.56-.34-1.1l-.54.14Z"/><path id="path235" class="cls-1" d="M715.45,340.34l-.55,0c0,.44.06,1,.5,1.08l.11-.55h0a.9.9,0,0,1-.07-.48Z"/><path id="path237" class="cls-1" d="M713,329.09a.51.51,0,0,0-.3-.39,1.78,1.78,0,0,0-1.45.35l.31.47a1.43,1.43,0,0,1,.92-.3s0,0,0,0l.55-.09Z"/><path id="path241" class="cls-1" d="M687.27,299a3,3,0,0,1-1.2.57l-.28,1-.47.37a2.22,2.22,0,0,1,0,.95c-.09.66-.93,1-.93,1l-.37.47a16.07,16.07,0,0,1-2.51,0,.75.75,0,0,1,.28-1.41c.56.09-.09-1.6-.09-1.6l.74-.1s.1-1.7.38-1.7-.1-.56-.47-.84-.84-1.23-1.21-1.14a11.29,11.29,0,0,1-1.86,0l-.28.57-1,.19s.09.73-.09.94c-.56.66-2.69,2.08-1.77-.28l.28-.57v-.85l-1.67-.09s-.84-.28-.84-.66a5.43,5.43,0,0,0-.09-.85l-1.95-2.17-2.32-.28-.19-.47-1.39-.19c-1.68-.85-3.16-.09-2.88,1.32s.74,2-.19,2a1.09,1.09,0,0,1-1.12-.75s-.74-.29-.74.09-.28,1.13,0,1.51-.37.94-.65.66-1-1.13-.83-1.41-1.31-2.08.18-2.36-.09-1.13.47-1.32l.74-.38h.74l.47-.38-1.21-.18-.74-.1-1.4-.09a4,4,0,0,0-1.67,2.07c-.74,1.42-2.51-.56-1.86-1.32s-2-.09-2.51.28-1.86.19-1.86.19c-.27.85-1.58-.09-1.2-.66a1.91,1.91,0,0,0,.37-.94l-.47-.1-.55,1c-1.3,0-1.68.76-1.4,1.23s-.37-.1-.56.56.1.66.66.95-.28.28.09.75,1.48,0,.83.66a2.42,2.42,0,0,1-1.95.38c-.09.85-1.86.66-2,.38s-1.58-2-1.58-2l-1.77-.1c-.18-1.32.84-.66,1.21-1.7a15.27,15.27,0,0,0,.56-2.73s-1.49-.09-1.58.38-1,.75-1,.75-.75.28-.47.66-.56.57-.56.57.15.61-.09.84c-.74.76-2.6.1-2.88-.18l-1.11-.48-1.12-.75-1.3.57-.37.37h-1.4l-.09,1.13,2.51.29.19,2.33-1-.35h-.65l-.27-.57-.56-.09V297l.56.47.46.47.93.1.19,1.13,2.32.1.28.47,1.39.09,2.7,2.73-.19.85-.47.29c.19.66-1.2.28-1.2.28v.57l.65.09.65.38.93-1.61c1-.66,1.48.29,1.58.85s-.47.47-.47.47V306l.56.18a1.12,1.12,0,0,1-.37,1.8l-.28.94c-.28.85-1.3.66-1.3.66l-.37.56-1.12.29,2.21.28c.21-.76.76-.94,1-.57a2.08,2.08,0,0,1,.28,1l.56.1-.09,1,.55.19v3l.65.75c1.12-.47,1.12.29.56.66s-.18,2.08-.18,2.08l-.47.47v.76l-.56.37v1a2.44,2.44,0,0,0-2.32,0c-.84-.57-2.6-.38-2.6.09.56.76-.65,1-.65,1l-.65.75c.46.94-.47,1-.47,1v1.79l-1.11,1,.09,2.45c0,.66,1.4.75,1.67.38s1.4.75,1.4.75h.83l.19-1.7-.56-.28v-2.73l.93-1c1.12-.38.75,2.45.75,2.73.09,1,.55.95,1,.76.93-.38.18,1-.56.94s-.28.94-.28.94l.47.19-.84.66-.74.85-.93-.28-1.12-.09-.37-.67-.65-.09-.09,1.32-.47.57-1.11,1.13c1.48,0-.19,1-.56,1,.83.29-.09,1.14-2.23.48v.66l-.75.09.66.75.74.1-.28,1.6c0,1.23-3.07.38-3.35.1l-.09,1.69-.56.1.1,1.13-.1,1.6,1-.18V344l2.51.09,3.62-3.87,2.14-.47c.18-.94,1.11.19,1.11.19a1,1,0,0,1,1.12.57l1.21.18c1,.29.4.39.46.76.09.57.56.38.56.38l.18-1.23.56.09-.56-.66-1-.47-1.11-.47c-.75-1,.18-.85.93-.75h1.2a10.29,10.29,0,0,1,1.4,2.35c0,.48.65.57.65.57l.83-.09.28.66h.84l.28.56h1.67l.09-.85-1.58-.28-.09-.94-1.11-.29c-.38-1.6.27-2.07.74-1.31l.56.09-.19-1.42.65-.19-.19-2-.55-.18v-.66l2.32.09a3.36,3.36,0,0,1,.09-1.79H652l.1.47,2.84.27,2-2.31c-.1-.17.2-.28,0-.51s-.65,0-1.12-.28,0-1.89-.09-2.26,1.58-.95,1.3-.1,0,1.23,0,1.23a1.21,1.21,0,0,1,2.14.38c-.1.28.65.56,1.11.28s1,.85.84,1.41-1.86.48-2-.09-.37-.38-.56-.09a1.35,1.35,0,0,1-1.49.18.39.39,0,0,1-.16-.15l-2,2.31H655c1.11.66.56,1.51.19,1.7a2.86,2.86,0,0,1-1,.19l-.18.38-2.42.18-.18.95a1.33,1.33,0,0,0-1.4,1.79,1.55,1.55,0,0,1,0,1.22l1,.48,1.3-.38c.19-.94,1-1.13,1.77-1.7s1.95,1,1.58,1.79a3,3,0,0,0-.37,1l.09.85-.93.38-.74.37-.1.48h-2.5l-.47.47-1.21.09-.37.57-.83.09s-1.4.66-.84,1.42-2.32.66-3-.38c-.18.94-1.2.09-1.2.09l-1-.28-.1-1.41c-.18-.95-2-.95-1.86-.29s-3.34.29-3.34.29l-1.12.54-1,.59-.09.47-1.68.19-.74.38-.28-.57h-.74l-.74,1c-2,.09-3.81,1.23-3.63,1.7s-.74.94-.74.94l-.84.28-.55.85-1.12.38-.19,2-.55.38v.85l-.65.18v.48l-.93.09.55,1.41.75.38c1.3.19.74,1.79.74,1.79l.75.1.37,1,.74,1.51c.28,1.14,1.12.85,1.49.76s.74,1.13.74,1.13l3.72.09s-.19.38.46.57,4.93.38,5.11.1c-.18-.85,2.33-1,3.35-.29a2.89,2.89,0,0,0,2.41.29l1.4,1.69.93,2.08,1.58.47,1.11.28.37,1.6.84.1.28,1c1,.75-.28,2.35-.28,2.35v2.08l.74.38-.09.75,1.21,1.23,1.39.09,3.53,3.77,2.79.85.46,1.51.75-.09.56-.47,2.23-.1,1.11-1,1.21-.18L674.91,373l-.93-.56v-2.08c1.68-1.22,1.77-3.39.19-3.58-1.2-.14-.65-1.41.47-1.6l.65-.29V364l2.13-2v-1.51l-4.64-3.87c-2-.75,0-5.28,1.39-5.19s-.09-7-.09-7l-.75-.37.19-2.27h-1L670.83,344l-.47,1.51c-.18,2-6,1.6-6.23,1.32a16.1,16.1,0,0,0-2.22-1.13s-1.49-1.23-1.77-.85-1.58-.47-1.58-.19-1.21-.66-1.21-.66l-1.86-.66,1.4-.28-.28-1.13,2.41,1.22c.28.38,1.49.29,1.49.29l.37.47a1.42,1.42,0,0,1,1.21.47c.47.57,2.88.09,2.88.09l.65.57,1,.38,2.89.09.09-1.79.56-.57-.1-1.13.65-.56v-.95l.56-.18.09-2.08.47-.09v-4.53l-1.4-1.32c-.09.47-1.57.47-1.57.47s-.38.66-.66.66.38.85.19,1.42-.93.56-.93.56l-1.39.38-.38.47h-1.48l-.19-1.23,1.67-.47.93-.47.47-.94c.09-.94,1.21-.85,1.21-.85s2.13-1.79,2.23-2.64.83-3.21,2.13-3.21h2.42c.93-.38.65-1.6.65-1.6l1.21-.19.18.66s1.68.19,1.86-.09.56-.95,1-.66,2-.66,2-.66c.09-.66,2.41-.38,2.41-.38l.28-.85s-1.58-2.17-1.86-2.17-1.76-1.32-1.95-.85c-1.48-.37-1.39-2.45-1.39-2.45l-.56-1.32c0-.75-1.39-2.36-1.67-2.17a1.33,1.33,0,0,1,0-2.36c.37-.09,1.3-1.41,1.3-1.41l.46-1.32,1.58-.47.19-1.23-.84-.09s.93-1.7,1.4-1.7a24.42,24.42,0,0,0,3.81-.19,5.3,5.3,0,0,0,.83-2c0-.28.75-.38,1-.47a3.65,3.65,0,0,0,1.12-1.23c.19-.38-.46-2.74-.84-2.36Z"/><path id="path245" class="cls-1" d="M635.8,333c.14-.14.28.43.55.35s.42.5.14.5-.27.35-.27.5a1,1,0,0,1-.21.7c-.21.21-.42.07-.7-.07a1.38,1.38,0,0,0-.77-.14c-.35,0-.07.57-.07.57s-1.46-.07-1.18-.29.55-.28.35-.42,0-.28,0-.57.69-.14.48-.35,0-1,.35-.57l.21-.49c-.21-.21-.07-.29-.49-.43s-.07-1-.07-1l.07-.56c.14-.71,1.54-.78,1.61-.14a4.31,4.31,0,0,1,0,1.06l.42.14s-.08.42-.42.42,0,.21-.21.43l.21.35Z"/><path id="path247" class="cls-1" d="M631.2,333.67c.21-.42.69-2.26,1.25-1.7s.91,0,.91,0a.91.91,0,0,1,.14.85c-.14.57-.28,1.13-.63,1.2s-.63.29-1,.36-.62-.71-.62-.71Z"/></g><path id="path3194" class="cls-1" d="M450.84,329.83a70.11,70.11,0,1,1-70.11-70.11,70.11,70.11,0,0,1,70.11,70.11Z"/><path id="path3209" class="cls-1" d="M195.78,80.84a70.12,70.12,0,1,1-70.11-70.11,70.11,70.11,0,0,1,70.11,70.11Z"/><path id="path3211" class="cls-1" d="M195.78,329.83a70.12,70.12,0,1,1-70.11-70.11,70.11,70.11,0,0,1,70.11,70.11Z"/><path id="path3213" class="cls-1" d="M195.78,575.39a70.12,70.12,0,1,1-70.11-70.11,70.11,70.11,0,0,1,70.11,70.11Z"/><path id="path3215" class="cls-1" d="M450.84,575.39a70.11,70.11,0,1,1-70.11-70.11,70.11,70.11,0,0,1,70.11,70.11Z"/><path id="path3217" class="cls-1" d="M705.91,575.39a70.11,70.11,0,1,1-70.11-70.11,70.11,70.11,0,0,1,70.11,70.11Z"/><path id="path3219" class="cls-1" d="M705.91,80.84A70.11,70.11,0,1,1,635.8,10.73a70.11,70.11,0,0,1,70.11,70.11Z"/><path id="path3221" class="cls-1" d="M450.84,80.84a70.11,70.11,0,1,1-70.11-70.11,70.11,70.11,0,0,1,70.11,70.11Z"/></g></g></svg>