<svg id="Layer_1" data-name="Layer 1" xmlns="http://www.w3.org/2000/svg" viewBox="0 0 461.28 211"><defs><style>.cls-1{fill:#fff;}</style></defs><path class="cls-1" d="M371.35,165.75v13.43c0,.59.26.9.71.9s.7-.31.7-.9V175L377,179.3c.57.57.82.78,1.25.78a.59.59,0,0,0,.57-.59c0-.31-.16-.54-.53-.9L373.64,174l4.23-3.27a.84.84,0,0,0,.41-.73.61.61,0,0,0-.59-.6c-.19,0-.37.1-.72.39l-4.21,3.41v-7.48c0-.58-.25-.9-.7-.9s-.71.32-.71.9m-8.12,4.58v8.85c0,.59.26.9.71.9s.7-.31.7-.9v-5.07A2.93,2.93,0,0,1,367,171c.69-.16,1-.37,1-.76s-.27-.77-.94-.77a2.79,2.79,0,0,0-2.29,1.88h0v-1c0-.59-.25-.9-.7-.9s-.71.31-.71.9m-11.44,4.43c0-1.9.76-4.16,2.95-4.16s3,2.26,3,4.16-.77,4.15-3,4.15-2.95-2.25-2.95-4.15m-1.53,0c0,2.93,1.49,5.32,4.48,5.32s4.48-2.39,4.48-5.32c0-2.62-1.4-5.33-4.48-5.33s-4.48,2.71-4.48,5.33m-17.08-4.68a1.88,1.88,0,0,0,.12.52l3,8.85a.91.91,0,0,0,.79.63.77.77,0,0,0,.77-.63l2.45-7.82h0l2.37,7.57c.22.7.49.88.86.88a.82.82,0,0,0,.79-.63l3-8.85a1.88,1.88,0,0,0,.12-.52.65.65,0,0,0-.67-.65c-.43,0-.64.24-.78.65l-2.43,7.73h0l-2.42-7.73a.82.82,0,0,0-1.6,0l-2.41,7.73h0l-2.43-7.73c-.14-.41-.36-.65-.78-.65a.64.64,0,0,0-.67.65m-6.65.06a.56.56,0,0,0,.6.58h.92v8.46c0,.59.26.9.71.9s.7-.31.7-.9v-8.46h.92a.59.59,0,1,0,0-1.17h-.92v-2.29c0-.61-.25-.92-.7-.92s-.71.31-.71.92v2.29h-.92a.56.56,0,0,0-.6.59m-9.94,4.07c.05-1.74,1-3.61,2.93-3.61s2.88,1.87,2.94,3.61Zm-1.53.55c0,2.62,1.39,5.32,4.72,5.32,2.43,0,4.05-1.47,4.05-2.09s-.27-.69-.67-.69c-.66,0-1.25,1.61-3.48,1.61-1.8,0-3-1.71-3.09-3.53H323c.84,0,1-.49,1-.86,0-2.62-1.51-5.09-4.45-5.09s-4.48,2.71-4.48,5.33m-14.46-8v12.45c0,.59.25.9.71.9s.7-.31.7-.9V168.5h0l7.58,11.08c.23.32.39.5.76.5s.66-.2.66-.86V166.81c0-.59-.25-.9-.7-.9s-.7.31-.7.9v10.55h0l-7.48-10.94a1,1,0,0,0-.82-.51.72.72,0,0,0-.71.82m-19.09,3.6v8.85c0,.59.25.9.7.9s.7-.31.7-.9v-5.73a2.53,2.53,0,0,1,2.55-2.73,2.31,2.31,0,0,1,2.55,2.39v6.07c0,.59.25.9.7.9s.7-.31.7-.9v-6a3.6,3.6,0,0,0-3.73-3.72,3.18,3.18,0,0,0-2.73,1.41h0v-.51c0-.59-.25-.9-.7-.9s-.7.31-.7.9m-11.45,4.43c0-1.9.77-4.16,3-4.16s3,2.26,3,4.16-.76,4.15-3,4.15-3-2.25-3-4.15m-1.53,0c0,2.93,1.49,5.32,4.49,5.32s4.48-2.39,4.48-5.32c0-2.62-1.41-5.33-4.48-5.33s-4.49,2.71-4.49,5.33m-5.42-4.43v8.85c0,.59.26.9.71.9s.7-.31.7-.9v-8.85c0-.59-.25-.9-.7-.9s-.71.31-.71.9m-.25-3.46a1,1,0,1,0,1-1,1,1,0,0,0-1,1m-7.57,3.27a.56.56,0,0,0,.6.58h.93v8.46c0,.59.25.9.7.9s.7-.31.7-.9v-8.46h.92a.59.59,0,1,0,0-1.17h-.92v-2.29c0-.61-.25-.92-.7-.92s-.7.31-.7.92v2.29h-.93a.56.56,0,0,0-.6.59m-10.67,4.62c0-1.9.83-4.16,3-4.16s2.93,2.26,2.93,4.16-.74,4.15-2.93,4.15-3-2.25-3-4.15m-1.52,0c0,2.93,1.48,5.32,4.48,5.32a3.26,3.26,0,0,0,2.88-1.55h0v.65c0,.59.26.9.71.9s.71-.31.71-.9v-8.85c0-.59-.26-.9-.71-.9s-.71.31-.71.9V171h0a3.49,3.49,0,0,0-2.92-1.55c-3,0-4.44,2.71-4.44,5.33m-10.65,0c0,2.62,1.55,5.32,4.48,5.32,1.4,0,2.71-.41,2.71-1.27a.61.61,0,0,0-.59-.57c-.39,0-.84.55-2.12.55-1.84,0-3-2-3-4.15,0-1.66,1-3.92,3-3.92,1.28,0,1.61.59,2,.59a.71.71,0,0,0,.79-.78c0-.59-1.26-1.1-2.59-1.1-3,0-4.66,2.71-4.66,5.33m-11.91-4.43v6.21c0,2.25,1.72,3.54,4,3.54s4-1.29,4-3.54v-6.21c0-.59-.26-.9-.71-.9s-.71.31-.71.9v5.85c0,1.79-.95,2.73-2.54,2.73S222,178,222,176.18v-5.85c0-.59-.26-.9-.71-.9s-.7.31-.7.9m-11.84,4.43c0-1.9.83-4.16,3-4.16s2.93,2.26,2.93,4.16-.74,4.15-2.93,4.15-3-2.25-3-4.15m-1.53,0c0,2.93,1.49,5.32,4.49,5.32a3.23,3.23,0,0,0,2.87-1.55h.06v.65c0,.59.26.9.71.9s.7-.31.7-.9V165.75c0-.58-.25-.9-.7-.9s-.71.32-.71.9V171h-.06a3.47,3.47,0,0,0-2.91-1.55c-3,0-4.45,2.71-4.45,5.33m-10.11-8v12.45c0,.49.23.74.86.74h4.82a.68.68,0,0,0,.74-.64.69.69,0,0,0-.74-.65h-4.27v-5h3.89a.65.65,0,1,0,0-1.29h-3.87v-5.05h4a.65.65,0,1,0,0-1.29h-4.62c-.63,0-.86.25-.86.74m-14.77,3.56v8.85c0,.59.25.9.7.9s.7-.31.7-.9v-5.07A2.93,2.93,0,0,1,186,171c.68-.16,1-.37,1-.76s-.28-.77-.94-.77a2.77,2.77,0,0,0-2.29,1.88h-.05v-1c0-.59-.25-.9-.7-.9s-.7.31-.7.9m-11.12,3.88c.06-1.74,1-3.61,2.94-3.61s2.87,1.87,2.93,3.61Zm-1.52.55c0,2.62,1.39,5.32,4.71,5.32,2.43,0,4-1.47,4-2.09s-.27-.69-.66-.69c-.67,0-1.25,1.61-3.48,1.61-1.81,0-3-1.71-3.1-3.53h6.44c.84,0,1-.49,1-.86,0-2.62-1.51-5.09-4.44-5.09s-4.48,2.71-4.48,5.33m-10.59-.55c.06-1.74,1-3.61,2.94-3.61s2.87,1.87,2.93,3.61Zm-1.53.55c0,2.62,1.4,5.32,4.72,5.32,2.43,0,4.05-1.47,4.05-2.09s-.27-.69-.66-.69c-.67,0-1.25,1.61-3.48,1.61-1.81,0-3-1.71-3.1-3.53h6.44c.84,0,1-.49,1-.86,0-2.62-1.51-5.09-4.44-5.09s-4.49,2.71-4.49,5.33m-10.17-7.44h2.58a3,3,0,1,1,0,6h-2.58Zm-1.41-.55v12.41c0,.59.26.9.71.9s.7-.31.7-.9v-4.54h2.47c3.21,0,4.66-2.11,4.66-4.42a4.1,4.1,0,0,0-4.31-4.19h-3.35c-.66,0-.88.27-.88.74m-19.09-1v13.43c0,.59.25.9.7.9s.7-.31.7-.9v-5.73a2.53,2.53,0,0,1,2.55-2.73,2.31,2.31,0,0,1,2.54,2.39v6.07c0,.59.26.9.71.9s.7-.31.7-.9v-6a3.6,3.6,0,0,0-3.73-3.72,3.18,3.18,0,0,0-2.73,1.41h0v-5.09c0-.58-.25-.9-.7-.9s-.7.32-.7.9M119,170.14a.56.56,0,0,0,.61.58h.92v8.46c0,.59.25.9.7.9s.7-.31.7-.9v-8.46h.93a.59.59,0,1,0,0-1.17H122v-2.29c0-.61-.25-.92-.7-.92s-.7.31-.7.92v2.29h-.92a.56.56,0,0,0-.61.59m-11.27.19v6.21c0,2.25,1.72,3.54,3.95,3.54s4-1.29,4-3.54v-6.21c0-.59-.26-.9-.71-.9s-.7.31-.7.9v5.85c0,1.79-1,2.73-2.55,2.73s-2.54-.94-2.54-2.73v-5.85c0-.59-.25-.9-.71-.9s-.7.31-.7.9m-11.45,4.43c0-1.9.77-4.16,3-4.16s3,2.26,3,4.16-.76,4.15-3,4.15-3-2.25-3-4.15m-1.52,0c0,2.93,1.49,5.32,4.48,5.32s4.48-2.39,4.48-5.32c0-2.62-1.41-5.33-4.48-5.33s-4.48,2.71-4.48,5.33M84.1,166.45c0,.18.08.4.44,1l3.55,5.93v5.81c0,.59.26.9.71.9s.7-.31.7-.9v-5.81l3.57-5.93c.35-.59.43-.81.43-1a.53.53,0,0,0-.59-.54.71.71,0,0,0-.7.42L88.8,172l-3.4-5.67a.73.73,0,0,0-.71-.42.53.53,0,0,0-.59.54M109.8,44.32c0-.44.07-.88.07-1.32a11.49,11.49,0,0,0-.17-1.86,15.16,15.16,0,0,0-1.89-4.7,12.36,12.36,0,0,0-4.28-3.72A15.76,15.76,0,0,0,96,30.92H45.57A15.06,15.06,0,0,0,36,34.09,11.6,11.6,0,0,0,32.9,38a11.24,11.24,0,0,0-1.15,5,12.65,12.65,0,0,0,.54,3.8,15.62,15.62,0,0,0,1.15,2.77c1.45,2.77,3.68,5.73,7.25,10.72l0,0L57.6,83V113.7a16.5,16.5,0,0,0,.95,5.74,11.83,11.83,0,0,0,4.83,6.09,13.79,13.79,0,0,0,7.43,2,14.85,14.85,0,0,0,5.12-.87,11.75,11.75,0,0,0,5.95-4.79A15.12,15.12,0,0,0,84,113.7V83l16.88-22.66,0,0c3.18-4.43,5.29-7.27,6.74-9.79A20,20,0,0,0,108.88,48a15.48,15.48,0,0,0,.92-3.72m32.72,38a11.85,11.85,0,0,0-11.86-11.85H111.17a11.85,11.85,0,0,0,0,23.7h19.49a11.85,11.85,0,0,0,11.86-11.85m77.66,1.45A36.05,36.05,0,0,0,225,65a36.19,36.19,0,0,0-2.82-14.43,30.18,30.18,0,0,0-12.7-14.2,36,36,0,0,0-18-4.68H166.57a13.46,13.46,0,0,0-9.11,3.43,12.23,12.23,0,0,0-3,4.23,14,14,0,0,0-1.09,5.54V113.7a16.74,16.74,0,0,0,.94,5.74,11.85,11.85,0,0,0,4.84,6.09,13.76,13.76,0,0,0,7.42,2,14.86,14.86,0,0,0,5.13-.87,11.75,11.75,0,0,0,6-4.79,15.21,15.21,0,0,0,2.13-8.17V98.17h12.28A37.51,37.51,0,0,0,206,95.69a28.64,28.64,0,0,0,14.21-12M192,119.92c.67,0,1.37.16,1.37,1,0,1-.77,1-1.6,1h-1.06v-2Zm.14-.68h-2c-.22,0-.27.08-.27.24v5.28c0,.33.15.59.43.59s.43-.26.43-.59v-2.15h1.12l1.46,2.39a.59.59,0,0,0,.5.35.4.4,0,0,0,.44-.36.82.82,0,0,0-.19-.44l-1.27-2a1.55,1.55,0,0,0,1.46-1.65c0-1.14-.7-1.69-2.09-1.69m-.34-1.41a4.33,4.33,0,1,1-4.25,4.33,4.32,4.32,0,0,1,4.25-4.33m0-.86a5.2,5.2,0,1,0,5.19,5.19,5.19,5.19,0,0,0-5.19-5.19M283,103.48l-11.18-12h.3a16.08,16.08,0,0,0,5.27-.83,11.33,11.33,0,0,0,5.88-4.42A12.68,12.68,0,0,0,285.33,79a13.63,13.63,0,0,0-.9-5,11.06,11.06,0,0,0-4.73-5.56,14.75,14.75,0,0,0-7.57-1.88h-.59L282.26,55h0a22.7,22.7,0,0,0,3.62-4.9,12.59,12.59,0,0,0,1.44-5.93,10.13,10.13,0,0,0-.41-2.75,12.41,12.41,0,0,0-.45-1.34c-.09-.29-.18-.59-.29-.88a11.28,11.28,0,0,0-4.71-5.56,14.69,14.69,0,0,0-7.59-1.92h-31a13.42,13.42,0,0,0-9.11,3.43,12.23,12.23,0,0,0-3,4.23,13.87,13.87,0,0,0-1.1,5.54v68.7a13.83,13.83,0,0,0,1.1,5.54,12.42,12.42,0,0,0,5,5.74,13.72,13.72,0,0,0,7.1,1.93h31.73a15.9,15.9,0,0,0,5.29-.85,11.38,11.38,0,0,0,7.35-7.64,12.22,12.22,0,0,0,.4-1.21,10.13,10.13,0,0,0,.41-2.75,12.72,12.72,0,0,0-1.44-5.94,23,23,0,0,0-3.62-4.9Zm63.26,0-11.19-12h.3a16.1,16.1,0,0,0,5.28-.83,11.41,11.41,0,0,0,5.88-4.42,12.75,12.75,0,0,0,2-7.21,13.63,13.63,0,0,0-.9-5A11,11,0,0,0,343,68.4a14.69,14.69,0,0,0-7.57-1.88h-.58L345.52,55h0a23,23,0,0,0,3.62-4.9,12.71,12.71,0,0,0,1.44-5.93,10.54,10.54,0,0,0-.41-2.75,12.41,12.41,0,0,0-.45-1.34c-.09-.29-.18-.59-.3-.88a11.18,11.18,0,0,0-4.71-5.56,14.64,14.64,0,0,0-7.59-1.92h-31A13.46,13.46,0,0,0,297,35.1a12.36,12.36,0,0,0-3,4.23A14,14,0,0,0,293,44.87v68.7a14,14,0,0,0,1.09,5.54,12.44,12.44,0,0,0,5,5.74,13.69,13.69,0,0,0,7.09,1.93h31.73a15.92,15.92,0,0,0,5.3-.85,11.38,11.38,0,0,0,7.35-7.64c.15-.41.29-.81.4-1.21a10.54,10.54,0,0,0,.41-2.75,12.72,12.72,0,0,0-1.44-5.94,23.29,23.29,0,0,0-3.62-4.9Zm75.8.75L407.92,89a27.33,27.33,0,0,0,11.8-8.13A28.43,28.43,0,0,0,426,62.36a32.84,32.84,0,0,0-2.34-12.49A27.81,27.81,0,0,0,412.1,36.46a36.5,36.5,0,0,0-18.89-4.79H368.85a13.42,13.42,0,0,0-9.11,3.43,12.23,12.23,0,0,0-3,4.23,13.87,13.87,0,0,0-1.1,5.54V113.7a16.74,16.74,0,0,0,.94,5.74,11.85,11.85,0,0,0,4.84,6.09,13.79,13.79,0,0,0,7.43,2h10.06a9.28,9.28,0,0,0,3.43-.62,7.53,7.53,0,0,0,3.8-3.24,10,10,0,0,0,1.29-5.18v-1.77l7.91,7.34h0a15.55,15.55,0,0,0,3.35,2.47,8.76,8.76,0,0,0,4.06,1h10.93a14,14,0,0,0,6.24-1.38,12.82,12.82,0,0,0,5.58-5.35,13.87,13.87,0,0,0,1.23-3,10.52,10.52,0,0,0,.4-2.76,12.59,12.59,0,0,0-1.44-5.93,22.56,22.56,0,0,0-3.62-4.89Zm7.48,43.51H31.72v.93H429.55Z"/></svg>